<?xml version="1.0" standalone="no"?>
<!DOCTYPE svg PUBLIC "-//W3C//DTD SVG 20010904//EN"
 "http://www.w3.org/TR/2001/REC-SVG-20010904/DTD/svg10.dtd">
<svg version="1.0" xmlns="http://www.w3.org/2000/svg"
 width="512.000000pt" height="512.000000pt" viewBox="0 0 512.000000 512.000000"
 preserveAspectRatio="xMidYMid meet">
<metadata>
Created by potrace 1.11, written by Peter Selinger 2001-2013
</metadata>
<g transform="translate(0.000000,512.000000) scale(0.100000,-0.100000)"
fill="#000000" stroke="none">
<path d="M0 2550 l0 -2550 2560 0 2560 0 0 2550 0 2550 -2560 0 -2560 0 0
-2550z m2579 2344 c83 -33 89 -39 56 -56 l-27 -15 58 -23 c78 -31 84 -38 46
-51 -37 -13 -34 -25 7 -34 21 -4 51 3 104 25 l74 31 44 -19 44 -20 -27 -12
c-16 -7 -28 -16 -28 -20 0 -4 72 -35 159 -69 l159 -62 35 17 c34 16 39 16 81
0 40 -15 46 -22 46 -46 0 -36 -11 -43 -45 -30 -18 7 -35 6 -58 -4 l-32 -14 38
-16 c27 -12 43 -14 57 -6 33 18 48 12 42 -15 -5 -29 -4 -28 -35 -14 -19 9 -32
7 -65 -10 l-41 -21 -48 21 c-45 19 -47 21 -29 35 11 8 23 14 28 14 20 0 5 19
-23 29 -24 8 -39 7 -71 -6 -40 -16 -41 -16 -134 22 -89 36 -94 40 -95 69 -2
30 -2 30 -6 4 -5 -32 -4 -32 -38 -16 -33 15 -32 23 6 38 l31 13 -54 23 c-36
15 -52 28 -50 38 4 22 -6 20 -70 -9 -53 -24 -56 -24 -96 -8 -49 19 -52 28 -14
41 25 9 28 7 28 -11 -1 -11 5 -22 12 -24 7 -3 12 5 12 20 0 20 -8 28 -39 41
-36 14 -43 14 -77 0 -34 -14 -41 -14 -81 1 -25 10 -41 21 -36 25 4 4 37 17 72
30 62 23 63 23 38 36 -21 12 -32 11 -67 -1 -36 -13 -45 -13 -81 2 -22 8 -37
19 -32 24 9 8 132 57 147 58 5 1 39 -11 75 -25z m-325 -50 c20 -8 21 -34 2
-34 -8 0 -21 -3 -30 -6 -12 -5 -16 0 -16 20 0 26 13 32 44 20z m40 -84 c33
-12 33 -37 2 -51 -27 -13 -61 -7 -91 15 -19 14 -19 15 15 30 42 18 42 18 74 6z
m826 -61 c0 -20 -25 -25 -50 -9 -16 10 -15 12 15 28 24 13 35 7 35 -19z
m-1260 -108 l0 -58 -52 -20 -52 -20 29 -15 c26 -14 33 -14 76 4 l47 20 43 -23
44 -23 -37 -15 c-21 -9 -38 -19 -38 -22 0 -4 13 -12 29 -18 23 -10 35 -9 66 3
21 9 40 14 43 11 3 -3 0 -5 -7 -5 -9 0 -12 -11 -9 -34 l4 -34 -39 15 c-30 12
-44 13 -63 4 -37 -16 -41 -14 -48 25 -6 29 -10 33 -22 24 -8 -7 -14 -22 -14
-34 0 -17 20 -30 98 -67 l97 -46 -45 -23 -45 -23 33 -15 c17 -9 32 -19 32 -24
0 -4 -16 -16 -36 -26 l-36 -19 43 -25 c111 -64 98 -63 196 -18 49 22 87 44 85
50 -3 14 11 13 26 -2 9 -9 12 -3 12 30 0 47 -6 50 -54 24 -30 -16 -32 -20 -17
-30 13 -10 12 -10 -6 -2 -34 16 -28 26 27 46 35 12 49 23 45 32 -3 7 -5 23 -5
33 0 16 -5 19 -22 14 -22 -6 -22 -5 1 8 22 13 32 11 113 -26 48 -22 88 -44 88
-49 0 -6 -36 -26 -80 -46 -44 -20 -80 -40 -80 -44 0 -4 11 -10 25 -14 13 -3
29 -12 35 -19 8 -10 -13 -23 -96 -59 -59 -26 -108 -45 -110 -43 -2 2 23 16 56
30 56 26 60 29 60 61 l0 34 -91 -41 -91 -42 6 -42 c4 -28 1 -43 -7 -46 -7 -2
-52 16 -101 40 -84 42 -97 45 -138 28 -13 -5 -17 0 -20 22 -3 26 -4 25 -9 -8
l-5 -37 123 -67 c68 -37 123 -70 123 -74 0 -5 -18 -16 -40 -26 -22 -10 -40
-21 -40 -25 0 -4 16 -15 35 -26 53 -28 51 -31 -85 -93 l-85 -38 35 -22 c19
-11 41 -21 48 -21 7 0 58 23 114 51 l102 51 51 -27 50 -28 53 27 53 27 156
-84 155 -84 45 25 44 25 -58 31 c-32 18 -121 65 -198 105 l-139 73 -54 -26
-54 -27 -44 26 c-24 14 -44 30 -44 36 0 5 41 29 91 53 l92 43 -43 26 -43 25
53 27 53 27 48 -23 c48 -22 49 -22 90 -4 l41 19 -41 20 c-22 11 -41 24 -41 28
0 5 19 17 41 28 l42 18 -44 23 -44 22 86 42 87 42 -79 39 c-44 21 -78 43 -76
49 2 5 22 16 44 24 40 14 43 14 120 -21 78 -35 78 -35 84 -79 l5 -44 5 40 c3
34 9 42 39 57 l35 17 -82 37 c-46 21 -83 41 -83 45 0 4 9 11 20 14 11 3 27 13
35 21 13 14 27 10 122 -33 147 -65 163 -73 139 -73 -13 0 -17 -5 -13 -19 3
-11 -1 -22 -9 -25 -7 -3 -14 -24 -16 -52 l-3 -47 -79 -40 -78 -40 38 -20 38
-19 127 63 128 63 -40 18 c-37 16 -43 16 -69 3 -42 -22 -50 -19 -50 20 0 40
-1 40 43 21 29 -12 37 -11 68 4 l34 18 -38 18 c-20 10 -37 20 -37 24 0 3 35
23 78 44 74 36 82 38 115 26 44 -14 48 -36 12 -65 -22 -18 -25 -29 -31 -132
-7 -111 -14 -129 -41 -102 -7 7 -21 5 -47 -7 -20 -10 -36 -21 -36 -25 0 -4 18
-14 40 -23 48 -19 50 -29 10 -46 -17 -7 -33 -16 -36 -21 -2 -5 26 -22 63 -40
37 -17 79 -37 93 -44 22 -12 30 -10 64 10 l38 23 -47 21 c-52 23 -51 32 6 61
l39 20 50 -25 50 -25 40 20 c21 11 42 20 46 20 3 0 3 -19 0 -42 -3 -24 -5 -53
-5 -65 -1 -13 -10 -24 -23 -29 -21 -6 -18 -10 26 -30 46 -21 51 -22 79 -7 28
14 29 14 23 -2 -3 -9 -6 -23 -6 -31 0 -10 -6 -11 -23 -5 -17 7 -32 3 -60 -13
l-37 -23 106 -52 106 -51 86 52 c48 28 98 58 112 67 24 15 25 15 8 -4 -9 -11
-19 -41 -23 -67 -4 -27 -12 -48 -19 -48 -17 -1 -73 -50 -57 -50 8 0 12 -3 8
-6 -3 -3 -29 6 -57 20 -47 24 -53 25 -78 11 -58 -31 -58 -32 -4 -59 29 -15 52
-30 52 -34 0 -4 -20 -19 -44 -35 -37 -23 -48 -26 -69 -16 -22 10 -24 14 -16
48 5 20 9 41 9 46 0 6 -39 30 -87 53 -49 24 -95 46 -103 51 -10 5 -14 23 -12
57 l1 49 -12 -45 c-10 -36 -19 -49 -49 -65 -21 -11 -38 -22 -38 -26 0 -3 20
-15 45 -27 25 -12 45 -26 45 -31 0 -5 -18 -20 -40 -32 l-41 -23 56 -28 c30
-16 55 -30 55 -32 0 -2 -22 -18 -50 -36 -65 -42 -85 -33 -81 38 2 48 1 52 -29
67 -46 24 -55 55 -22 82 l26 22 -47 22 c-26 13 -47 26 -47 30 0 4 18 18 41 31
l41 24 -101 48 -101 47 -40 -24 -39 -23 44 -22 c25 -12 45 -26 45 -30 0 -5
-20 -20 -45 -33 l-44 -23 -46 22 c-54 26 -69 27 -114 3 l-34 -18 44 -24 c24
-13 43 -28 43 -34 -1 -5 -17 -19 -37 -30 -20 -11 -37 -22 -37 -26 0 -3 19 -14
43 -26 l42 -20 49 27 49 28 114 -56 114 -57 42 23 c23 13 36 17 30 11 -7 -7
-13 -28 -13 -46 l0 -34 -30 16 c-28 15 -32 14 -80 -16 l-50 -31 -112 60 -113
60 -43 -25 -44 -26 29 -17 c15 -10 143 -79 283 -155 140 -75 256 -138 258
-140 8 -7 -23 -235 -32 -235 -6 0 -29 11 -50 25 -37 23 -39 26 -40 80 l-1 56
-270 151 c-394 219 -426 237 -473 261 l-43 22 -62 -33 c-34 -17 -129 -68 -210
-113 -82 -44 -152 -78 -155 -74 -8 8 -9 13 -11 68 -1 39 -4 44 -48 71 l-48 29
-55 -29 c-30 -16 -54 -34 -53 -39 0 -6 4 -57 8 -115 l7 -105 -73 -37 c-40 -21
-74 -36 -75 -35 -1 1 -6 30 -11 64 -9 60 -9 62 16 75 14 7 39 20 55 29 l28 17
-40 27 c-34 22 -44 25 -62 15 -31 -17 -47 -6 -52 34 -2 20 -3 36 -2 36 2 0 19
-9 38 -21 l35 -20 52 26 52 27 -89 54 c-49 30 -90 58 -92 62 -1 4 46 31 105
61 l107 53 -38 23 -38 23 -56 -26 -56 -25 -45 25 c-25 13 -46 29 -48 34 -3 9
92 54 114 54 7 0 27 -9 45 -20 18 -11 38 -20 44 -20 15 0 194 83 194 90 0 3
-15 13 -33 23 -28 15 -38 16 -60 6 -15 -7 -29 -10 -32 -7 -3 2 -8 39 -11 82
-6 69 -10 79 -36 100 -24 18 -31 33 -37 79 -4 31 -6 57 -5 57 2 0 24 -10 48
-22 44 -21 45 -21 86 -3 30 14 37 21 27 27 -10 5 -17 36 -22 104 -6 77 -10 94
-22 90 -7 -3 -12 -2 -9 3 3 5 -8 14 -25 21 -29 12 -42 9 -187 -50 -87 -35
-170 -70 -187 -78 l-30 -15 36 -16 c20 -9 34 -21 32 -28 -2 -6 0 -42 5 -80 9
-58 8 -70 -6 -81 -14 -10 -18 -10 -24 5 -3 10 -7 30 -7 44 -1 19 -10 29 -35
41 -29 14 -34 22 -40 64 -3 26 -6 60 -6 75 0 22 -5 29 -19 29 -27 0 -30 -7
-22 -67 4 -29 6 -53 4 -53 -2 0 -50 25 -107 55 l-103 55 -7 52 c-5 37 -4 53 6
59 7 5 17 4 22 -1 17 -17 41 -11 168 37 131 50 139 54 122 60 -6 2 -20 10 -30
18 -18 13 -16 15 28 34 l48 20 80 -36 c77 -35 80 -35 117 -20 l38 15 -27 10
c-14 6 -29 15 -32 20 -3 5 33 24 80 42 l85 33 -30 13 c-38 16 -38 20 -4 38 46
23 63 6 63 -63z m647 17 c-2 -13 -4 -3 -4 22 0 25 2 35 4 23 2 -13 2 -33 0
-45z m-77 27 c-24 -13 -25 -16 -20 -79 3 -36 5 -66 4 -66 -15 0 -155 68 -155
75 -1 5 39 26 88 47 90 37 128 48 83 23z m-328 -31 c2 -19 1 -37 -3 -40 -5 -3
-25 2 -46 11 -22 9 -49 13 -65 10 -25 -6 -28 -4 -28 19 0 23 2 25 24 14 19 -8
33 -7 63 5 51 21 50 22 55 -19z m-436 11 c16 -13 17 -16 4 -25 -23 -15 -37
-12 -43 9 -8 33 8 40 39 16z m479 3 c30 -14 32 -24 5 -33 -26 -8 -40 1 -40 26
0 22 1 23 35 7z m104 -120 c39 -17 70 -36 68 -42 -4 -11 -135 -72 -141 -65 -8
10 -16 139 -8 139 5 0 42 -14 81 -32z m636 15 c19 -9 35 -20 35 -23 0 -7 -66
-40 -80 -40 -6 0 -10 15 -10 34 0 30 -3 34 -22 29 -19 -4 -20 -3 -8 6 21 15
44 14 85 -6z m-108 -9 c-10 -10 -107 -54 -107 -48 0 4 99 54 109 54 2 0 2 -3
-2 -6z m-1492 -26 c31 -14 32 -26 3 -37 -30 -11 -38 -6 -38 25 0 28 1 28 35
12z m1185 -14 c0 -2 -9 0 -20 6 -11 6 -20 13 -20 16 0 2 9 0 20 -6 11 -6 20
-13 20 -16z m576 -19 c31 -13 34 -17 24 -35 -18 -33 -49 -39 -95 -19 -22 10
-41 22 -43 27 -2 7 49 37 71 41 4 0 23 -6 43 -14z m708 -10 c20 -8 36 -17 36
-19 0 -3 -15 -14 -34 -25 -32 -20 -35 -20 -80 -5 -57 19 -63 28 -34 48 28 20
65 20 112 1z m192 -77 c-4 -29 -10 -56 -14 -60 -4 -3 -68 -39 -142 -78 -74
-40 -154 -83 -178 -97 l-44 -25 7 59 c4 32 9 60 12 63 7 8 347 188 357 189 5
1 5 -23 2 -51z m-1751 5 c39 -19 44 -28 18 -36 -10 -2 -25 -8 -34 -11 -13 -6
-18 0 -21 28 -2 20 -3 36 -1 36 1 0 18 -8 38 -17z m1265 -19 c50 -20 92 -40
95 -44 3 -4 -10 -17 -29 -28 -25 -15 -35 -29 -40 -56 -4 -20 -11 -36 -15 -36
-5 0 -44 16 -87 36 -76 35 -79 35 -112 20 -43 -21 -43 -21 -40 19 2 40 1 39
36 21 23 -11 32 -11 65 4 l37 17 -40 18 c-22 10 -40 21 -40 25 0 6 58 38 72
39 5 1 48 -15 98 -35z m-2510 6 c8 -5 11 -10 5 -10 -5 0 -17 5 -25 10 -8 5
-10 10 -5 10 6 0 17 -5 25 -10z m-165 -52 c-71 -28 -134 -57 -138 -65 -4 -7
-12 -13 -18 -13 -15 0 -170 -62 -166 -67 2 -2 99 33 214 77 115 44 214 80 220
80 14 0 383 -211 383 -219 0 -4 -44 -25 -98 -47 l-98 -41 4 29 c8 53 -2 60
-53 38 -26 -11 -52 -20 -58 -19 -7 0 7 8 31 18 24 9 42 21 41 27 -1 5 -42 32
-92 61 l-89 51 -52 -18 c-83 -29 -117 -46 -109 -54 4 -4 -1 -4 -11 0 -13 5
-17 4 -13 -3 5 -7 -1 -9 -15 -5 -14 3 -19 1 -14 -6 4 -8 2 -10 -7 -6 -8 3 -30
-2 -48 -10 -19 -9 -24 -13 -12 -10 17 4 22 0 25 -18 2 -12 14 -28 28 -35 14
-7 19 -13 12 -13 -20 0 -63 36 -54 45 4 5 1 5 -5 1 -7 -4 -22 -2 -34 4 -19 10
-20 9 -15 -8 6 -17 0 -23 -29 -33 -41 -15 -43 -19 -12 -38 12 -8 33 -21 47
-30 14 -10 21 -11 17 -3 -13 20 0 14 56 -23 28 -19 48 -35 43 -35 -4 0 -20 8
-34 18 -37 26 -52 34 -52 29 0 -9 79 -58 92 -56 28 3 37 -2 40 -23 2 -13 9
-22 16 -20 8 1 11 -2 7 -8 -8 -13 -41 4 -197 106 -130 85 -178 108 -67 34 63
-44 65 -50 21 -87 -12 -10 -11 -14 12 -24 14 -7 26 -16 26 -20 0 -4 9 -11 21
-14 11 -4 18 -9 15 -12 -8 -8 -116 66 -113 79 1 6 -5 13 -13 15 -13 4 -13 3 0
-6 8 -6 10 -11 5 -11 -18 0 -56 31 -50 41 3 5 -2 6 -11 2 -13 -5 -15 -3 -9 7
5 8 4 11 -3 6 -13 -8 -104 52 -97 64 3 4 -3 7 -13 6 -12 -1 -16 5 -14 23 2 13
-1 27 -7 31 -7 3 21 19 61 34 116 44 201 77 224 88 12 5 33 11 47 11 14 1 23
5 20 10 -2 4 4 7 15 7 10 0 22 3 25 7 10 9 249 100 267 101 8 1 -43 -22 -115
-50z m280 -8 c3 -6 -1 -7 -9 -4 -18 7 -21 14 -7 14 6 0 13 -4 16 -10z m3303
-96 c149 -59 272 -110 272 -115 0 -4 -23 -22 -52 -39 -49 -31 -53 -31 -83 -17
-23 11 -36 12 -50 5 -16 -9 -17 -7 -13 16 3 14 0 30 -6 35 -15 11 -289 121
-304 121 -6 0 -61 -28 -122 -62 -95 -54 -110 -66 -110 -88 0 -48 -10 -50 -99
-11 -46 20 -83 41 -83 46 0 8 354 212 372 214 3 1 128 -47 278 -105z m-2120
72 c-7 -8 -15 -12 -17 -11 -5 6 10 25 20 25 5 0 4 -6 -3 -14z m-443 -23 c45
21 62 22 45 2 -7 -8 -10 -26 -8 -40 6 -29 -2 -31 -43 -9 -28 14 -34 14 -70 0
l-39 -16 0 29 c0 16 -3 37 -6 46 -5 13 1 12 40 -6 44 -22 47 -22 81 -6z m-185
-8 c-14 -8 -32 -14 -40 -14 -8 0 -1 6 15 14 40 18 57 18 25 0z m-65 -25 c-3
-5 -12 -10 -18 -10 -7 0 -6 4 3 10 19 12 23 12 15 0z m1761 -30 c2 0 4 -4 4
-8 0 -7 -63 -42 -75 -42 -3 0 -5 18 -5 40 l0 40 36 -15 c20 -8 38 -15 40 -15z
m178 -67 c-11 -112 -4 -107 -86 -68 l-72 33 -38 -19 c-51 -26 -54 -25 -50 21
2 22 6 40 8 40 3 0 21 -7 40 -15 35 -15 38 -14 108 24 97 53 97 52 90 -16z
m-1868 -1 c30 -16 32 -20 30 -69 -1 -47 2 -53 27 -68 27 -16 31 -16 68 0 22
10 42 15 45 12 3 -3 -11 -13 -32 -22 -35 -15 -36 -16 -18 -30 22 -17 12 -20
-14 -4 -14 9 -25 8 -50 -5 -45 -23 -52 -20 -52 19 0 19 -4 35 -9 35 -5 0 -7
-18 -4 -40 4 -27 2 -40 -6 -40 -18 0 -91 39 -91 49 0 5 21 17 46 28 36 16 43
23 32 29 -19 11 -32 124 -15 124 7 -1 26 -9 43 -18z m84 3 c-14 -8 -29 -14
-35 -14 -5 0 1 6 15 14 14 8 30 14 35 14 6 0 -1 -6 -15 -14z m-270 -30 c0 -5
-69 -35 -79 -34 -5 0 68 38 77 39 1 0 2 -2 2 -5z m-485 -44 c-12 -10 -189 -81
-204 -81 -6 0 -11 5 -11 11 0 5 4 8 9 4 5 -3 54 12 108 34 107 44 112 45 98
32z m385 -1 c-8 -5 -19 -10 -25 -10 -5 0 -3 5 5 10 8 5 20 10 25 10 6 0 3 -5
-5 -10z m-787 -27 c7 -36 4 -38 -28 -17 -25 17 -26 19 -9 31 26 19 31 16 37
-14z m742 7 c-3 -5 -12 -10 -18 -10 -7 0 -6 4 3 10 19 12 23 12 15 0z m-595
-15 c17 -9 30 -18 30 -21 0 -4 -59 23 -69 32 -10 9 13 3 39 -11z m550 -5 c-8
-5 -19 -10 -25 -10 -5 0 -3 5 5 10 8 5 20 10 25 10 6 0 3 -5 -5 -10z m-180 -4
c0 -2 -7 -7 -16 -10 -8 -3 -12 -2 -9 4 6 10 25 14 25 6z m120 -21 c-14 -8 -32
-14 -40 -14 -8 0 -1 6 15 14 40 18 57 18 25 0z m975 5 c-3 -5 -12 -10 -18 -10
-7 0 -6 4 3 10 19 12 23 12 15 0z m-1836 -86 l113 -79 -41 -18 -41 -18 -104
73 c-58 40 -105 77 -105 82 -1 18 33 47 49 43 9 -2 67 -40 129 -83z m667 67
c-6 -9 -46 -22 -46 -15 0 3 10 9 23 14 29 11 29 11 23 1z m134 -6 c0 -4 -58
-33 -80 -40 -3 -1 -16 -6 -30 -13 -35 -15 -211 -87 -235 -96 -12 -4 -16 -4
-10 2 6 5 57 28 115 51 58 24 128 53 155 66 42 18 71 30 83 34 1 1 2 -1 2 -4z
m-190 -19 c0 -2 -9 -6 -20 -9 -11 -3 -18 -1 -14 4 5 9 34 13 34 5z m-80 -30
c0 -2 -7 -7 -16 -10 -8 -3 -12 -2 -9 4 6 10 25 14 25 6z m653 -53 c42 -24 77
-48 77 -52 0 -8 -97 -54 -114 -54 -6 0 -46 21 -89 47 -54 33 -85 46 -100 42
-19 -4 -24 1 -33 29 l-11 35 31 -19 c31 -19 31 -19 81 4 28 13 57 21 65 19 8
-3 50 -26 93 -51z m287 -3 c0 -60 -14 -64 -74 -24 l-39 27 44 23 c64 34 69 32
69 -26z m-1010 25 c-14 -8 -29 -14 -35 -14 -5 0 1 6 15 14 14 8 30 14 35 14 6
0 -1 -6 -15 -14z m3523 0 c3 -18 -51 -37 -70 -25 -15 9 -15 10 5 5 18 -5 25
-2 29 15 5 21 32 25 36 5z m-108 -5 c3 -6 -1 -7 -9 -4 -18 7 -21 14 -7 14 6 0
13 -4 16 -10z m-3052 -43 c20 -10 37 -19 37 -22 0 -10 -16 -4 -55 21 -43 27
-41 27 18 1z m2586 -6 l54 -28 -47 -27 c-50 -29 -86 -28 -86 3 0 30 12 81 19
81 3 -1 30 -13 60 -29z m-3253 -62 c8 -24 14 -50 14 -57 0 -12 -89 -57 -97
-48 -6 6 -35 118 -31 120 11 9 85 34 92 32 5 -1 15 -22 22 -47z m-223 -4 c63
-44 74 -60 90 -142 4 -19 2 -20 -14 -10 -13 8 -15 14 -6 20 8 5 5 7 -8 5 -11
-2 -19 -10 -17 -19 2 -16 -44 -44 -52 -31 -2 4 -13 41 -25 82 -11 41 -25 90
-30 108 -5 17 -8 32 -6 32 2 0 33 -20 68 -45z m472 29 c-16 -9 -34 -17 -40
-18 -5 -1 -15 -5 -21 -9 -7 -4 -17 -1 -22 6 -9 10 -3 13 24 14 20 1 41 6 47
12 6 6 18 11 27 11 8 0 2 -7 -15 -16z m3851 -18 l52 -24 -16 -56 c-8 -31 -20
-56 -26 -56 -6 0 -34 11 -63 24 l-52 25 14 48 c8 26 15 51 15 56 0 13 23 8 76
-17z m229 -16 c-3 -11 -17 -58 -30 -106 -13 -47 -26 -88 -29 -91 -11 -11 -46
10 -46 28 0 11 -10 24 -23 30 -18 8 -23 17 -19 34 5 27 22 44 90 91 55 39 66
41 57 14z m-3530 -42 c4 -29 10 -67 15 -85 l8 -31 -79 50 c-43 27 -76 54 -73
60 5 8 99 55 116 57 3 1 9 -23 13 -51z m113 -25 c28 -19 52 -37 52 -42 0 -5
-22 -18 -50 -30 -27 -12 -50 -24 -50 -26 0 -2 13 -11 29 -19 24 -13 29 -22 34
-68 2 -29 3 -55 1 -57 -2 -2 -15 4 -29 13 -15 10 -35 16 -45 14 -13 -2 7 -19
65 -56 l84 -53 62 31 c33 17 62 30 64 28 1 -2 5 -29 8 -61 5 -47 3 -59 -10
-64 -13 -5 -14 -17 -9 -70 4 -34 3 -63 -2 -63 -4 0 -72 -34 -149 -75 -78 -41
-144 -75 -146 -75 -5 0 -30 121 -25 124 2 2 48 26 103 55 55 29 104 56 109 61
5 5 4 29 -2 57 l-11 48 4 -48 c5 -46 4 -48 -18 -41 -12 4 -31 13 -41 20 -16
11 -27 9 -78 -17 -64 -32 -61 -34 -76 42 l-9 47 58 28 59 28 -42 24 -41 25
-51 -27 c-28 -15 -69 -38 -91 -51 -21 -13 -42 -22 -46 -20 -3 3 -9 27 -13 54
-6 43 -12 54 -48 80 -23 17 -38 31 -34 31 4 0 19 -9 33 -20 14 -11 34 -20 44
-20 10 0 64 23 120 50 56 28 109 50 117 50 12 0 13 11 7 57 -4 31 -9 63 -13
71 -6 17 -8 18 76 -35z m-610 13 c-7 -8 -17 -12 -22 -9 -4 3 -2 9 5 14 22 13
31 11 17 -5z m180 -55 l10 -53 -52 -24 -51 -24 -7 23 c-3 12 -9 35 -12 50 -4
15 -10 26 -14 24 -4 -2 -18 7 -32 21 l-25 24 26 -12 c22 -10 35 -8 85 13 32
14 60 22 61 19 1 -4 6 -31 11 -61z m-371 43 c-16 -9 -31 -13 -34 -10 -3 3 5
10 18 15 37 15 47 12 16 -5z m-107 -24 c-8 -5 -19 -10 -25 -10 -5 0 -3 5 5 10
8 5 20 10 25 10 6 0 3 -5 -5 -10z m-43 -16 c-3 -4 4 -15 16 -26 l22 -19 -27
17 c-29 17 -37 34 -16 34 6 0 9 -3 5 -6z m133 -9 c11 -13 16 -13 47 0 20 8 38
15 41 15 11 0 -5 -10 -39 -24 -31 -13 -36 -13 -58 5 -13 10 -19 19 -13 19 5 0
15 -7 22 -15z m-41 -53 c7 -22 6 -29 -2 -26 -7 2 -12 18 -13 34 -1 36 3 34 15
-8z m1011 -24 c0 -18 3 -42 6 -53 4 -17 -5 -25 -52 -48 -31 -15 -59 -25 -62
-22 -4 3 -9 27 -12 53 l-5 47 50 27 c66 35 75 35 75 -4z m-1236 -4 c9 -24 7
-28 -9 -14 -17 14 -20 30 -6 30 5 0 12 -7 15 -16z m3289 -25 c-4 -30 -8 -36
-24 -32 -39 10 -41 30 -7 51 18 12 33 20 34 19 1 -1 -1 -18 -3 -38z m-3201
-58 c52 -39 66 -56 71 -83 3 -18 9 -42 13 -52 5 -14 4 -17 -4 -12 -7 4 -12 15
-12 26 0 13 -5 17 -21 13 -21 -6 -21 -14 -3 -75 8 -26 -18 -22 -45 6 -22 23
-86 226 -71 226 4 0 36 -22 72 -49z m4258 -81 c-20 -70 -37 -111 -51 -122 -34
-28 -42 -22 -35 26 6 39 5 45 -14 51 -25 8 -26 40 -2 60 25 22 127 94 129 92
1 -2 -11 -50 -27 -107z m-4111 63 l33 -28 -31 -1 c-25 -1 -32 4 -40 27 -12 36
-4 36 38 2z m3941 -38 c-8 -22 -13 -25 -25 -15 -8 6 -20 9 -27 5 -7 -4 3 7 22
24 38 33 46 29 30 -14z m-3453 -36 c8 -41 8 -52 -3 -56 -8 -3 -14 -11 -14 -17
0 -18 -70 -49 -75 -33 -6 18 -24 112 -22 113 12 9 85 43 93 44 6 0 16 -23 21
-51z m3020 -76 c-5 -32 -11 -59 -12 -61 -6 -7 -75 33 -75 43 0 7 -11 17 -24
23 -23 10 -24 14 -15 49 6 21 12 44 14 51 3 9 21 4 63 -17 l59 -30 -10 -58z
m-1292 -51 c154 -87 280 -163 282 -168 3 -8 -42 -38 -152 -102 -34 -20 -36
-21 -15 -3 14 11 33 23 43 27 25 8 21 21 -11 38 -26 13 -31 13 -58 -5 -39 -25
-44 -24 -44 11 0 24 -8 34 -47 56 -27 15 -101 59 -165 97 -64 38 -121 67 -126
65 -5 -1 -81 -43 -170 -93 -112 -63 -162 -95 -162 -107 0 -20 -15 -24 -25 -8
-10 16 -33 12 -77 -16 l-42 -27 -44 24 c-48 27 -73 50 -57 56 6 2 136 73 290
158 154 84 285 154 291 155 6 0 136 -71 289 -158z m866 128 l60 -31 -7 -52
c-4 -29 -8 -54 -10 -56 -5 -5 -87 27 -109 43 -15 11 -17 21 -11 69 4 32 9 57
12 57 3 0 32 -14 65 -30z m-1645 -5 c-11 -11 -13 -29 -9 -69 5 -47 3 -55 -15
-65 -19 -10 -20 -7 -27 50 -4 33 -6 61 -4 63 45 34 83 48 55 21z m-1133 -44
c10 -12 9 -12 -8 -3 -11 6 -31 21 -45 33 l-25 21 33 -19 c19 -10 39 -24 45
-32z m48 -131 c21 0 6 -22 -26 -37 -19 -9 -35 -24 -35 -33 0 -13 -37 -40 -54
-40 -6 0 -29 101 -24 106 3 2 17 -5 32 -17 15 -12 29 -20 30 -18 2 2 1 22 -3
44 -6 36 -4 41 19 52 l25 12 -30 -4 -30 -5 28 11 c15 6 27 18 28 27 1 10 8 -9
16 -40 8 -32 19 -58 24 -58z m-371 -26 c6 -18 10 -41 8 -49 -5 -26 -65 24 -72
60 -3 16 -8 41 -12 54 l-7 24 36 -27 c20 -15 41 -43 47 -62z m-114 29 c16 -15
28 -27 26 -26 -3 1 -17 -4 -33 -12 -26 -14 -29 -13 -37 2 -5 10 -13 33 -17 51
-6 31 -5 33 12 24 10 -6 32 -23 49 -39z m3162 -25 c64 -34 118 -62 120 -64 4
-3 -17 -116 -22 -122 -3 -2 -50 20 -106 49 l-102 54 7 58 c5 46 3 58 -9 63
-15 6 -23 24 -10 24 3 0 58 -28 122 -62z m577 50 c24 -11 25 -15 19 -57 l-7
-46 38 30 c28 21 37 24 32 11 -4 -10 -7 -30 -7 -44 0 -44 -12 -55 -43 -41 -15
7 -27 18 -27 25 0 8 -18 23 -41 34 -38 20 -40 23 -25 39 9 10 16 24 16 33 0
13 9 28 16 28 2 0 15 -5 29 -12z m393 -48 c-13 -53 -33 -80 -60 -80 -17 0 -19
5 -13 33 6 28 70 105 80 95 2 -2 -1 -24 -7 -48z m109 3 c-7 -23 -15 -44 -18
-48 -8 -8 -60 16 -57 26 3 9 81 69 85 65 1 -1 -3 -20 -10 -43z m-3654 -60 c31
-24 57 -46 57 -49 0 -6 -73 46 -115 82 -44 37 -9 17 58 -33z m184 -30 c22 -21
32 -41 37 -78 4 -28 14 -57 22 -66 14 -15 8 -21 -60 -58 -41 -22 -76 -45 -78
-50 -3 -10 -179 -93 -184 -88 -6 6 -42 162 -38 166 2 2 36 -21 76 -52 40 -30
74 -54 75 -53 1 1 -2 19 -8 40 -15 53 -8 60 30 31 19 -13 36 -24 37 -22 2 1
-2 22 -8 45 -6 24 -8 45 -5 48 3 3 22 -6 41 -21 20 -15 36 -25 36 -23 0 2 -9
53 -20 113 -11 60 -20 110 -20 112 0 8 39 -18 67 -44z m-678 -45 c17 -64 31
-91 58 -120 24 -25 41 -55 53 -100 l17 -63 -67 -37 -68 -36 -7 26 c-3 15 -9
36 -12 47 -5 19 -4 19 19 -2 13 -13 27 -23 30 -23 3 0 -17 82 -45 182 -47 172
-48 182 -31 195 10 7 21 13 24 13 4 0 17 -37 29 -82z m3346 0 c-7 -35 -16 -85
-20 -112 -7 -52 -8 -52 48 -14 30 22 32 17 18 -44 -5 -21 -7 -38 -4 -38 3 0
18 9 35 21 16 12 31 19 34 16 8 -8 -7 -97 -16 -97 -4 0 -22 11 -41 25 -19 13
-67 43 -106 65 -69 40 -72 43 -59 63 8 12 17 44 21 70 5 41 12 52 47 77 23 17
44 30 48 30 4 0 2 -28 -5 -62z m120 32 c-10 -11 -23 -20 -29 -20 -6 0 0 9 14
20 32 25 38 25 15 0z m578 9 l24 -11 -43 -151 c-23 -84 -45 -168 -49 -187 l-7
-35 26 24 c18 17 26 20 26 10 0 -29 -13 -59 -24 -59 -17 0 -126 60 -126 69 0
4 7 34 15 66 12 45 24 66 49 87 27 22 38 43 57 113 13 47 25 85 26 85 1 0 13
-5 26 -11z m-3750 -108 c-2 -3 -16 8 -31 24 l-27 28 31 -24 c17 -13 30 -26 27
-28z m1312 -39 c-3 -3 -11 0 -18 7 -9 10 -8 11 6 5 10 -3 15 -9 12 -12z m-522
-100 c6 -52 6 -52 -33 -77 -37 -24 -200 -115 -205 -115 -1 0 -2 14 -3 31 0 17
-3 43 -7 58 -5 25 -1 31 36 53 l43 25 39 -28 c22 -16 41 -28 43 -27 1 2 -2 28
-7 57 -4 30 -7 56 -6 57 1 1 20 11 42 22 47 23 50 21 58 -56z m617 42 c0 -2
-9 0 -20 6 -11 6 -20 13 -20 16 0 2 9 0 20 -6 11 -6 20 -13 20 -16z m1221 -1
l51 -28 -6 -57 c-3 -32 -3 -58 0 -58 3 0 21 12 41 27 l35 27 45 -24 c43 -23
45 -25 39 -59 -3 -20 -6 -47 -6 -59 l0 -24 -42 25 c-24 14 -61 35 -83 47 -22
12 -60 34 -84 48 l-44 25 6 63 c4 44 3 64 -6 68 -7 2 -9 5 -5 5 5 1 31 -11 59
-26z m664 -79 c-9 -41 -20 -74 -23 -72 -63 31 -102 53 -102 57 1 12 135 108
138 100 2 -5 -4 -43 -13 -85z m-3640 76 c3 -5 1 -10 -4 -10 -6 0 -11 5 -11 10
0 6 2 10 4 10 3 0 8 -4 11 -10z m302 -20 c23 -18 27 -18 54 -4 24 12 29 12 29
1 0 -8 3 -28 6 -45 5 -27 2 -32 -25 -47 -31 -15 -32 -15 -74 14 -88 64 -85 59
-57 81 31 24 36 24 67 0z m1531 -22 c12 -6 22 -15 22 -20 0 -5 -20 5 -45 22
-25 17 -45 34 -45 37 0 3 10 -2 23 -11 12 -9 32 -21 45 -28z m-917 15 c13 -16
12 -17 -3 -4 -17 13 -22 21 -14 21 2 0 10 -8 17 -17z m3209 7 c0 -5 -5 -10
-11 -10 -5 0 -7 5 -4 10 3 6 8 10 11 10 2 0 4 -4 4 -10z m-243 -42 c-1 -4 -26
-25 -55 -47 l-54 -39 -34 20 c-28 17 -34 26 -34 55 0 30 3 34 18 28 40 -17 52
-16 77 3 25 20 27 20 55 4 17 -9 29 -20 27 -24z m-3072 -30 c3 -24 9 -50 11
-59 3 -11 -7 -24 -31 -37 -31 -19 -34 -25 -29 -51 7 -36 -12 -49 -45 -31 -38
20 -72 -20 -51 -59 7 -14 6 -22 -4 -30 -11 -9 -15 -3 -20 31 -6 39 -4 45 20
64 25 21 26 24 16 70 -6 27 -9 50 -7 52 2 2 20 -8 40 -23 l36 -28 -7 44 c-4
24 -7 47 -8 51 -1 7 52 46 66 47 3 1 9 -18 13 -41z m1124 -14 c56 -33 81 -54
66 -54 -3 0 -36 20 -73 45 -80 54 -77 59 7 9z m1383 10 c30 -15 30 -17 23 -71
l-7 -56 38 31 c21 17 39 30 41 28 2 -1 -2 -27 -7 -57 -7 -36 -7 -55 0 -57 5
-2 20 -12 32 -23 21 -18 20 -18 -14 1 -30 17 -40 19 -56 9 -31 -20 -55 -4 -47
31 6 27 3 32 -29 51 -34 20 -36 24 -30 58 8 48 14 71 20 71 3 0 19 -7 36 -16z
m-2716 -41 c4 -21 13 -46 21 -55 13 -15 12 -18 -17 -33 -31 -16 -33 -16 -71
10 -40 29 -65 53 -58 59 8 7 104 55 111 56 4 0 10 -17 14 -37z m2962 -16 c29
-15 50 -32 46 -38 -3 -6 -24 -23 -46 -39 -39 -28 -40 -29 -72 -12 -30 16 -32
18 -19 42 7 14 13 34 13 46 0 21 9 37 19 32 3 -2 30 -16 59 -31z m-3264 -54
c-29 -21 -40 -16 -52 26 -17 55 -16 56 29 20 38 -30 40 -33 23 -46z m1032 -4
c46 -33 84 -62 84 -65 0 -2 -11 3 -25 12 -22 14 -25 14 -25 1 0 -8 12 -25 28
-36 l27 -21 -28 -23 -28 -24 16 -159 c9 -87 19 -162 21 -166 4 -6 132 -107
265 -209 l47 -36 -35 -27 c-22 -18 -38 -25 -46 -19 -261 199 -326 255 -331
286 -3 17 -17 138 -31 267 -14 129 -28 245 -30 258 -3 12 -3 22 1 22 3 0 44
-27 90 -61z m2529 34 c-3 -10 -9 -30 -12 -45 -6 -33 -10 -34 -42 -11 l-24 16
34 28 c39 33 54 36 44 12z m-1039 -10 c-2 -10 -17 -141 -32 -290 l-28 -273
-150 -112 c-83 -61 -156 -115 -162 -120 -8 -5 -26 0 -47 15 l-36 24 37 32 37
32 -38 -27 -38 -27 7 159 c4 87 7 160 8 161 0 0 69 51 151 111 138 101 151
108 157 89 5 -20 6 -19 7 5 1 22 -8 34 -39 54 l-41 27 25 16 c13 9 32 26 42
38 20 24 123 101 137 102 5 1 6 -7 3 -16z m-1655 -76 c3 -47 2 -50 -36 -73
l-40 -24 -7 23 c-3 12 -6 38 -7 57 -1 30 4 38 37 57 20 12 40 18 44 15 3 -4 8
-29 9 -55z m1822 -58 c-2 -29 -5 -54 -7 -56 -2 -3 -23 8 -46 23 -39 26 -42 30
-36 63 3 20 6 44 6 55 0 16 4 16 43 -7 42 -25 42 -26 40 -78z m-2291 17 c4
-39 -7 -40 -14 -1 -4 21 -1 35 8 35 1 0 4 -15 6 -34z m-480 -23 c31 -29 35
-45 15 -61 -17 -14 -33 -3 -41 28 -4 14 -10 33 -12 43 -7 24 6 21 38 -10z
m638 -54 c6 -10 10 -31 10 -48 0 -17 10 -42 24 -58 l25 -29 -29 -18 c-27 -15
-31 -15 -54 -1 -19 13 -27 32 -40 104 -23 127 -23 127 19 95 20 -15 40 -35 45
-45z m-542 20 c-13 -8 -28 7 -28 30 0 11 5 10 20 -4 15 -14 17 -20 8 -26z
m1222 5 c27 -20 50 -38 50 -40 0 -6 -8 -1 -68 40 -39 27 -49 36 -37 36 3 0 27
-16 55 -36z m2383 -6 c-8 -48 -24 -62 -48 -44 -20 14 -19 15 9 45 38 39 47 39
39 -1z m-3467 -20 c13 -13 26 -46 31 -80 9 -53 8 -57 -13 -67 -21 -9 -24 -7
-38 42 -8 29 -18 66 -21 82 -4 17 -9 38 -12 48 -4 16 -2 17 14 9 10 -6 28 -21
39 -34z m2854 25 c0 -48 -34 -184 -50 -198 -16 -14 -21 -14 -54 1 -36 18 -36
18 -17 38 11 12 25 43 31 71 8 35 20 57 43 77 38 32 47 34 47 11z m504 -17
c-5 -20 -10 -24 -19 -16 -6 5 -16 6 -21 2 -5 -4 2 5 15 20 28 32 35 31 25 -6z
m-3094 -5 c0 -39 -15 -47 -47 -25 l-27 17 23 18 c34 28 51 24 51 -10z m2720
-29 c0 -13 -39 -32 -55 -26 -15 6 -21 45 -9 57 8 7 64 -20 64 -31z m240 -61
l-23 -90 -24 16 c-17 12 -23 22 -19 37 3 12 6 32 6 45 0 23 66 99 76 88 4 -3
-4 -46 -16 -96z m-3320 75 c0 -16 -27 -29 -42 -20 -5 3 -1 12 9 20 23 17 33
17 33 0z m1393 -113 c20 -14 37 -29 37 -34 0 -4 -32 15 -71 44 -93 67 -143
112 -64 57 33 -23 77 -54 98 -67z m737 102 c0 -2 -20 -18 -45 -35 -25 -17 -45
-29 -45 -26 0 4 80 64 88 66 1 0 2 -2 2 -5z m1306 -32 c-9 -10 -46 9 -46 23 0
12 4 12 25 -2 14 -9 24 -19 21 -21z m-2597 -70 c1 -24 -3 -43 -8 -43 -4 0 -19
-10 -32 -23 -13 -13 -38 -32 -56 -42 l-31 -18 -53 38 -52 39 7 -44 c4 -25 9
-54 12 -65 3 -13 -2 -24 -17 -33 -30 -19 -54 6 -67 69 l-10 51 34 20 c32 19
33 22 27 64 -3 24 -2 44 2 44 6 0 40 -25 153 -113 11 -8 12 -1 6 40 -6 50 -6
51 32 77 l39 26 7 -22 c3 -13 6 -42 7 -65z m-974 57 c3 -5 2 -10 -4 -10 -5 0
-13 5 -16 10 -3 6 -2 10 4 10 5 0 13 -4 16 -10z m-35 -50 c0 -13 -38 -32 -43
-23 -3 5 -8 23 -12 42 l-7 34 31 -22 c17 -12 31 -26 31 -31z m2747 29 c34 -21
34 -23 28 -70 -4 -27 -4 -49 -1 -49 4 0 42 27 85 60 43 33 82 60 85 60 3 0 3
-20 0 -44 -6 -42 -5 -45 28 -67 l34 -22 -9 -52 c-12 -64 -35 -83 -68 -56 -21
17 -21 20 -9 70 7 29 10 54 8 56 -2 2 -25 -11 -52 -30 l-47 -33 -64 40 c-35
21 -68 45 -73 51 -11 16 -3 107 10 107 6 0 26 -10 45 -21z m-2349 -17 c21 -18
34 -39 38 -62 5 -32 3 -37 -20 -48 -31 -14 -29 -17 -49 76 -8 34 -12 62 -8 62
3 0 21 -13 39 -28z m1802 13 c0 -2 -28 -23 -62 -46 -35 -23 -58 -36 -52 -30
10 11 105 79 112 80 1 1 2 -1 2 -4z m1589 -38 c-11 -39 -15 -42 -39 -27 -12 8
-10 14 14 39 16 17 31 29 32 28 2 -2 -1 -20 -7 -40z m-3619 -21 c-12 -12 -15
-8 -25 24 -8 25 -8 25 14 6 14 -13 18 -23 11 -30z m364 12 c24 -24 36 -45 40
-75 5 -38 3 -44 -19 -59 -14 -9 -28 -15 -30 -12 -11 11 -42 178 -34 178 5 0
25 -15 43 -32z m2822 -10 c-4 -24 -11 -58 -17 -75 -9 -29 -12 -31 -25 -18 -9
8 -20 15 -25 15 -5 0 -9 12 -9 26 0 24 56 94 75 94 4 0 5 -19 1 -42z m-143
-80 l-18 -87 -31 20 c-30 19 -31 21 -23 62 7 29 21 52 46 75 21 18 39 29 40
25 2 -5 -5 -48 -14 -95z m370 64 c-6 -16 -12 -19 -23 -11 -13 8 -12 11 4 24
24 18 29 14 19 -13z m-3446 -4 c20 -19 27 -20 43 -10 11 7 24 12 30 12 19 0
10 -17 -16 -29 -26 -11 -27 -24 -9 -73 5 -13 -32 -44 -42 -35 -3 4 -42 142
-43 155 0 8 17 -1 37 -20z m3478 -70 c-22 -86 -27 -93 -52 -77 -17 10 -19 17
-12 43 13 43 12 45 -16 58 -13 6 -22 15 -19 19 3 5 16 2 28 -7 22 -14 26 -13
52 10 16 13 30 23 32 21 2 -1 -4 -31 -13 -67z m-3275 33 c0 -12 -50 -32 -62
-25 -5 4 2 14 18 25 26 17 44 17 44 0z m3110 -43 c0 -4 -6 -8 -12 -8 -18 1
-49 26 -42 33 8 7 54 -14 54 -25z m-2990 -26 c9 -34 9 -35 -79 -86 -16 -10
-31 9 -31 41 0 14 11 28 30 39 21 13 26 20 17 26 -7 5 -2 7 13 6 18 -2 24 1
22 12 -6 29 18 -5 28 -38z m-169 -8 c5 -15 8 -28 7 -29 -7 -6 -47 -25 -52 -25
-12 0 -6 69 7 73 23 10 27 7 38 -19z m745 -34 c4 -40 12 -64 23 -69 9 -5 14
-11 11 -13 -6 -5 -93 -61 -174 -112 -32 -20 -59 -36 -61 -34 -4 5 -25 134 -25
157 0 22 0 22 36 -6 l37 -27 -5 42 c-2 23 -2 42 0 42 2 0 22 -14 44 -31 l39
-31 -7 49 c-6 48 -5 50 27 71 19 12 37 22 41 22 4 0 10 -27 14 -60z m2334 -42
c0 -21 -2 -38 -5 -38 -2 0 -29 16 -59 35 -36 23 -54 40 -51 50 3 8 7 22 10 31
4 13 13 11 55 -13 46 -26 50 -31 50 -65z m-655 61 c35 -21 37 -24 33 -71 -3
-45 3 -60 17 -38 3 5 19 19 36 31 l31 22 -8 -49 -7 -48 43 34 43 34 -6 -45
c-17 -127 -20 -140 -33 -135 -7 3 -61 37 -119 76 -76 51 -104 75 -97 83 5 7
13 38 16 70 4 31 9 57 11 57 2 0 20 -10 40 -21z m763 3 c14 -10 12 -62 -3 -62
-24 1 -47 29 -40 49 7 22 21 26 43 13z m-3349 -201 c-19 -16 -19 -17 6 -111
26 -95 26 -95 106 -176 65 -65 77 -82 64 -88 -18 -7 -76 37 -148 112 -34 35
-42 54 -82 201 -25 90 -45 167 -45 173 0 5 27 -14 59 -43 57 -50 59 -53 40
-68z m247 84 c7 -27 -9 -55 -31 -55 -22 0 -28 50 -8 66 26 19 32 17 39 -11z
m3303 -115 c-57 -213 -65 -230 -148 -303 -58 -51 -77 -62 -87 -53 -11 9 1 25
58 81 69 69 71 72 99 169 28 98 28 115 -4 116 -5 0 -7 4 -5 8 4 12 109 104
114 100 1 -2 -11 -55 -27 -118z m-2927 48 l70 -62 -27 -13 c-28 -15 -34 -13
-86 29 -15 12 -43 108 -32 108 3 0 37 -28 75 -62z m2631 51 c19 -8 22 -16 19
-40 -5 -33 -9 -35 -38 -14 -15 10 -20 22 -17 40 6 29 5 28 36 14z m-348 -36
c-2 -10 -6 -30 -9 -44 -3 -15 -20 -38 -38 -51 -32 -24 -34 -24 -61 -8 l-28 17
63 51 c69 56 78 60 73 35z m-2342 -126 c-3 -4 -25 -17 -50 -29 -40 -19 -44
-24 -41 -50 4 -23 -1 -33 -19 -45 -28 -19 -32 -16 -39 29 -5 29 -2 36 19 47
22 12 25 18 20 50 l-6 36 25 -22 c13 -13 28 -23 32 -23 8 0 3 40 -9 72 -4 9
11 0 33 -20 21 -21 37 -41 35 -45z m-206 51 l21 -23 -44 -27 c-41 -25 -44 -26
-62 -10 -10 9 -11 13 -3 7 12 -8 13 -5 9 18 -4 22 0 30 21 42 34 19 34 19 58
-7z m583 -20 c0 -9 20 -33 45 -54 51 -42 55 -55 20 -74 -20 -11 -27 -11 -40 0
-14 12 -15 8 -9 -31 5 -31 15 -51 37 -70 l30 -25 -53 -38 c-67 -48 -74 -42
-89 84 -7 52 -15 113 -18 135 l-6 39 39 -32 39 -33 3 37 c2 26 -2 42 -17 58
-16 17 -18 25 -9 34 14 14 28 -1 28 -30z m-859 15 c13 -16 12 -17 -3 -4 -10 7
-18 15 -18 17 0 8 8 3 21 -13z m2882 -5 c-13 -16 -25 -78 -16 -78 4 0 20 12
36 28 l30 27 -6 -37 c-5 -32 -2 -41 20 -58 22 -17 24 -25 19 -55 l-7 -36 -28
17 c-22 13 -26 22 -23 46 5 30 -17 57 -48 58 -8 0 -23 7 -33 14 -17 14 -16 16
20 50 39 36 53 46 36 24z m-423 -18 c0 -11 -30 -34 -36 -27 -12 11 7 46 22 40
7 -3 14 -9 14 -13z m629 3 c16 -14 19 -24 14 -45 l-8 -28 -43 26 c-42 25 -43
27 -26 45 21 24 36 24 63 2z m-2999 -58 c13 -14 21 -25 18 -25 -2 0 -15 11
-28 25 -13 14 -21 25 -18 25 2 0 15 -11 28 -25z m2330 -20 c0 -19 3 -35 6 -35
3 0 20 12 38 26 27 24 31 25 34 9 6 -29 -29 -249 -40 -256 -6 -4 -33 9 -59 29
l-49 36 25 26 c14 15 27 43 31 70 7 41 6 44 -9 31 -14 -11 -21 -11 -42 3 -14
9 -25 20 -25 24 0 8 72 71 83 72 4 0 7 -16 7 -35z m-1850 -83 c14 -9 15 -6 12
25 l-5 36 32 -22 c37 -27 38 -34 7 -49 -21 -9 -24 -16 -19 -44 4 -30 1 -35
-22 -46 -15 -7 -29 -11 -31 -9 -2 2 -9 30 -14 63 -6 32 -15 70 -21 84 l-11 25
29 -26 c15 -14 35 -30 43 -37z m690 12 c0 -1 -27 -22 -60 -45 l-60 -42 0 -52
c0 -46 -3 -55 -26 -70 -43 -28 -60 0 -68 109 l-7 88 30 -21 c17 -12 33 -26 36
-31 11 -18 25 -10 25 14 0 18 12 33 42 54 39 27 44 28 65 15 13 -9 23 -17 23
-19z m1452 -10 l-5 -37 37 28 c20 15 36 23 36 18 0 -21 -23 -128 -29 -135 -13
-15 -51 23 -51 51 0 18 -8 34 -22 44 l-23 16 28 26 c15 14 29 25 31 25 1 0 0
-16 -2 -36z m-571 -48 c2 -14 -2 -40 -6 -44 -2 -2 -30 17 -64 41 -60 44 -60
45 -38 60 20 13 25 12 65 -16 23 -17 43 -35 43 -41z m88 -72 c-12 -105 -25
-125 -63 -98 -32 24 -36 33 -29 82 5 34 14 48 51 77 25 19 47 34 48 32 2 -2
-1 -43 -7 -93z m-1905 67 c15 -16 15 -20 1 -31 -15 -13 -14 -14 -30 35 -6 21
8 19 29 -4z m150 -39 c3 -22 13 -45 21 -52 8 -7 12 -16 9 -21 -3 -5 1 -6 9 -3
8 3 19 -2 26 -10 10 -12 8 -17 -8 -26 -12 -6 -21 -17 -21 -24 0 -8 -23 -29
-51 -46 -37 -25 -49 -38 -46 -52 8 -27 -12 -33 -36 -10 -17 17 -18 24 -8 36 8
9 18 13 24 9 6 -4 8 4 4 24 -4 22 -1 34 13 45 10 9 21 14 24 11 10 -10 7 32
-6 87 -11 47 -10 54 6 66 25 18 32 12 40 -34z m2530 4 c-7 -28 -19 -34 -27
-13 -4 12 22 51 30 43 2 -2 1 -15 -3 -30z m-138 2 c14 -17 15 -20 2 -9 -9 7
-22 10 -28 6 -11 -7 -14 8 -3 18 9 9 7 10 29 -15z m-2108 -81 c24 -21 42 -40
40 -41 -80 -58 -211 -146 -213 -144 -1 2 -5 20 -9 40 -6 32 -4 39 16 50 13 7
26 11 30 10 4 -1 4 13 1 32 -4 27 -1 36 18 49 12 9 26 14 31 11 8 -5 5 19 -9
68 -3 13 4 10 24 -10 15 -15 48 -44 71 -65z m1860 18 c-3 -27 0 -35 12 -35 27
0 48 -32 41 -60 -6 -20 -2 -27 24 -40 25 -12 29 -20 27 -45 -2 -16 -7 -33 -11
-37 -5 -6 -173 105 -211 139 -4 4 109 112 119 113 2 0 1 -16 -1 -35z m183 -29
c-9 -11 -6 -18 19 -36 17 -12 36 -23 43 -24 38 -8 48 -19 42 -46 -5 -22 -2
-28 14 -33 13 -3 18 -1 15 8 -3 6 3 18 12 26 15 12 16 11 9 -21 -13 -61 -65
-98 -65 -46 0 18 -13 32 -50 56 -27 18 -50 38 -50 46 0 7 -10 18 -21 25 -22
11 -21 11 7 35 33 27 42 30 25 10z m-2461 -49 c0 -8 9 -22 20 -32 11 -10 17
-22 14 -26 -10 -17 -22 -9 -35 24 -7 17 -14 35 -17 40 -2 4 1 7 7 7 6 0 11 -6
11 -13z m598 -20 l22 -24 -20 -18 c-24 -22 -25 -21 -34 28 -8 43 1 47 32 14z
m1435 -62 c-8 -13 -11 -13 -32 2 l-24 16 29 24 29 23 3 -25 c2 -13 -1 -31 -5
-40z m607 55 c0 -5 -5 -10 -11 -10 -5 0 -7 5 -4 10 3 6 8 10 11 10 2 0 4 -4 4
-10z m-1640 -100 c0 -10 -19 -32 -42 -50 l-43 -31 -9 62 c-7 53 -6 63 8 71 9
5 13 14 9 21 -4 7 12 -3 35 -21 23 -19 42 -42 42 -52z m-212 26 l22 -20 -27
-17 c-36 -24 -53 -9 -53 43 0 44 1 44 58 -6z m878 25 c-3 -5 1 -14 9 -21 15
-13 22 -110 9 -123 -9 -9 -94 62 -94 78 0 7 17 27 38 44 39 32 47 36 38 22z
m192 -92 c-7 -5 -19 -2 -29 7 -8 7 -22 14 -30 14 -8 1 4 17 26 36 l40 36 3
-43 c2 -26 -1 -45 -10 -50z m-1672 53 c-3 -5 8 -22 24 -37 28 -27 29 -29 11
-41 -21 -15 -35 -54 -17 -51 14 2 21 -52 8 -65 -5 -5 -19 0 -36 13 -25 20 -26
22 -9 36 10 8 13 12 7 9 -7 -4 -17 17 -27 54 -14 57 -10 79 13 65 6 -4 10 -3
9 2 -3 15 1 23 12 23 5 0 8 -4 5 -8z m2304 -55 c0 -5 -13 1 -30 13 -16 12 -30
24 -30 26 0 3 14 -3 30 -13 17 -9 30 -21 30 -26z m-1096 -49 c52 -40 95 -76
95 -80 1 -4 -8 -12 -20 -18 -17 -10 -28 -5 -76 37 -98 85 -116 98 -121 85 -2
-6 -33 -35 -69 -63 -52 -40 -70 -50 -82 -42 -9 6 -15 14 -15 18 2 15 169 144
181 140 6 -2 54 -37 107 -77z m-946 33 c3 -23 -3 -37 -20 -51 -32 -27 -36 -25
-44 16 -6 31 -3 40 17 55 32 24 43 19 47 -20z m126 -31 c18 -14 18 -13 12 18
-9 40 0 40 44 3 26 -22 30 -28 14 -25 -39 10 -56 -47 -31 -106 5 -10 -6 -24
-32 -42 l-39 -28 -12 88 c-6 48 -14 101 -17 117 l-5 30 23 -20 c13 -12 32 -27
43 -35z m1637 27 c23 -19 25 -26 17 -55 l-9 -33 -29 18 c-30 17 -37 42 -24 77
8 21 14 20 45 -7z m199 9 c0 -2 -8 -10 -17 -17 -16 -13 -17 -12 -4 4 13 16 21
21 21 13z m-392 -36 c-5 -36 -4 -37 38 -5 39 30 43 31 39 8 -2 -10 -9 -59 -16
-110 l-12 -92 -38 27 c-25 18 -37 32 -33 42 3 8 8 30 11 49 5 27 2 37 -18 52
l-24 19 24 20 c31 26 34 25 29 -10z m-1748 -26 c0 -11 11 -31 25 -44 19 -18
22 -26 14 -37 -17 -20 -29 -16 -29 12 0 13 -14 40 -30 59 -28 32 -29 35 -13
45 20 11 33 -2 33 -35z m509 -8 l22 -23 -25 -17 c-14 -9 -27 -16 -28 -16 -2 0
-3 18 -3 40 -1 46 3 49 34 16z m1611 6 c0 -9 -32 -42 -41 -42 -5 0 -6 7 -4 15
3 8 7 22 10 30 4 13 35 11 35 -3z m-1380 -28 c0 -9 9 -23 20 -32 l21 -17 -21
-13 c-18 -11 -20 -10 -20 10 0 13 -7 32 -15 42 -8 10 -12 23 -9 28 8 12 24 0
24 -18z m846 4 c-3 -13 -6 -31 -6 -41 0 -17 -1 -17 -24 0 l-24 18 21 23 c11
12 25 22 30 22 5 0 7 -10 3 -22z m604 -29 c0 -13 -39 -41 -49 -34 -12 7 -14
35 -5 59 5 14 9 14 30 -2 13 -9 24 -20 24 -23z m-867 -22 c-3 -21 -11 -37 -19
-37 -18 0 -27 17 -14 25 6 4 16 18 21 32 13 35 20 25 12 -20z m749 -7 c-5 -32
-9 -35 -32 -20 -12 7 -12 12 4 29 26 29 33 26 28 -9z m-1463 -14 l22 -23 -64
-51 c-36 -28 -68 -48 -71 -45 -3 4 -6 22 -6 42 1 30 7 41 43 68 23 17 45 32
48 32 3 1 16 -10 28 -23z m-379 -43 c-16 -11 -18 -21 -13 -58 3 -24 3 -52 -1
-61 -6 -16 -8 -16 -26 1 -16 14 -23 15 -34 6 -29 -24 -66 12 -66 63 0 12 -11
33 -25 46 -19 18 -22 26 -14 37 18 21 26 16 33 -20 3 -19 20 -46 36 -62 32
-31 34 -29 21 48 -4 26 -5 47 -2 47 2 0 18 -12 33 -27 l28 -27 0 34 0 33 25
-23 c24 -23 24 -24 5 -37z m493 29 c15 -16 14 -18 -12 -33 -23 -14 -31 -14
-46 -3 -17 13 -17 14 6 33 30 25 32 25 52 3z m803 -14 c37 -29 43 -38 44 -70
0 -21 -3 -38 -6 -38 -10 0 -134 93 -134 101 0 6 40 37 49 38 2 1 23 -14 47
-31z m-1496 -46 c0 -19 -30 -27 -45 -11 -7 8 -16 29 -20 48 l-7 34 36 -29 c20
-16 36 -35 36 -42z m1380 17 c0 -17 -34 -17 -55 -1 -18 14 -21 22 -13 30 8 8
19 7 40 -6 15 -9 28 -19 28 -23z m496 16 l34 26 -5 -43 c-4 -24 -9 -54 -11
-68 -5 -24 -4 -24 30 9 20 19 36 42 36 50 0 9 5 23 10 31 7 12 12 12 21 3 10
-10 8 -18 -9 -36 -12 -13 -22 -33 -22 -45 0 -11 -11 -33 -24 -49 -21 -24 -26
-26 -40 -14 -13 11 -20 11 -28 3 -7 -7 -21 -12 -31 -12 -18 0 -19 5 -14 52 5
40 3 56 -10 70 -15 17 -15 19 3 32 17 13 19 12 22 -10 l3 -25 35 26z m205 -39
c-12 -31 -37 -44 -54 -27 -8 8 -2 20 24 47 36 38 48 30 30 -20z m-1757 -43 c3
-21 13 -94 22 -162 l16 -124 -28 -22 c-16 -13 -31 -21 -33 -19 -3 3 -15 75
-27 162 l-23 157 27 22 c15 13 30 23 34 23 3 0 9 -17 12 -37z m1408 -6 l26
-22 -19 -150 c-11 -82 -22 -156 -25 -164 -4 -11 -12 -8 -34 15 l-29 29 14 125
c18 154 24 190 33 190 4 -1 19 -11 34 -23z m-1622 -103 c0 -8 -7 -14 -15 -14
-10 0 -15 10 -15 26 0 22 2 25 15 14 8 -7 15 -19 15 -26z m365 -30 c64 -56 64
-57 43 -74 -21 -16 -21 -21 -11 -114 l10 -98 87 -87 c76 -76 85 -89 72 -100
-14 -11 -30 0 -115 78 -54 50 -104 97 -110 105 -6 8 -18 72 -26 142 -8 71 -17
146 -20 167 -3 20 -3 37 1 37 3 0 34 -25 69 -56z m280 36 c10 -11 16 -21 14
-23 -2 -1 -14 -11 -26 -21 l-23 -19 0 41 c0 47 8 52 35 22z m84 7 c8 -10 7
-17 -1 -25 -19 -19 -28 -14 -28 13 0 27 12 32 29 12z m341 -34 c0 -25 -1 -26
-16 -11 -9 9 -13 21 -10 27 13 20 26 11 26 -16z m94 -41 c-1 -2 -14 4 -28 13
l-26 17 23 18 c22 18 22 18 27 -13 3 -18 5 -33 4 -35z m317 -64 c-19 -188 -21
-202 -39 -220 -77 -75 -197 -177 -201 -170 -3 5 -12 11 -20 13 -9 3 17 33 71
83 l85 78 12 101 c12 99 12 101 -10 118 l-22 16 39 36 c59 53 89 76 93 71 2
-2 -1 -59 -8 -126z m349 123 c0 -5 -3 -17 -6 -25 -5 -13 -9 -14 -20 -5 -11 9
-11 15 -3 25 13 16 29 18 29 5z m-1265 -211 c10 -11 16 -20 13 -20 -3 0 -13 9
-23 20 -10 11 -16 20 -13 20 3 0 13 -9 23 -20z m85 -75 c13 -14 21 -25 18 -25
-2 0 -15 11 -28 25 -13 14 -21 25 -18 25 2 0 15 -11 28 -25z"/>
<path d="M1778 4438 c-36 -12 -35 -23 1 -38 24 -10 35 -9 62 5 l33 17 -25 14
c-28 16 -35 16 -71 2z"/>
<path d="M1513 4397 c-40 -12 -41 -20 -8 -35 21 -10 33 -9 62 3 56 24 8 52
-54 32z"/>
<path d="M1306 4316 l-29 -13 24 -17 c23 -15 28 -15 68 1 42 16 42 17 19 29
-28 16 -45 16 -82 0z"/>
<path d="M2625 4103 l-30 -16 41 -20 c40 -19 41 -19 79 1 l39 19 -32 17 c-38
20 -59 20 -97 -1z"/>
<path d="M2632 4012 l-32 -18 90 -44 c49 -24 90 -48 90 -52 0 -4 -19 -17 -42
-29 l-42 -21 35 -19 c18 -10 41 -18 49 -19 8 0 53 20 99 44 l84 44 -46 20
c-26 12 -47 23 -47 26 0 3 19 15 42 27 l43 22 -43 21 -43 20 -45 -23 -45 -24
-45 21 c-53 26 -59 26 -102 4z"/>
<path d="M2448 3922 c-21 -10 -38 -20 -38 -23 0 -3 17 -14 38 -23 36 -17 40
-16 75 0 20 10 37 21 37 24 0 6 -67 42 -73 39 -1 0 -19 -8 -39 -17z"/>
<path d="M2179 3582 c-48 -26 -87 -51 -87 -57 0 -5 14 -18 32 -28 l33 -19 103
52 103 52 -39 23 c-21 14 -43 24 -49 24 -5 -1 -49 -22 -96 -47z"/>
<path d="M420 4140 c-8 -5 -10 -10 -5 -10 6 0 17 5 25 10 8 5 11 10 5 10 -5 0
-17 -5 -25 -10z"/>
<path d="M354 4114 c-19 -15 -19 -15 1 -6 11 5 27 12 35 15 13 5 13 6 -1 6 -8
1 -24 -6 -35 -15z"/>
<path d="M360 4066 c0 -3 9 -10 20 -16 11 -6 20 -8 20 -6 0 3 -9 10 -20 16
-11 6 -20 8 -20 6z"/>
<path d="M1401 3853 c0 -28 4 -55 9 -58 11 -7 11 35 0 80 -7 26 -8 23 -9 -22z"/>
<path d="M3063 2294 c-20 -8 -55 -73 -49 -89 4 -11 13 -14 32 -9 35 9 28 -14
-10 -36 -29 -16 -36 -32 -17 -38 6 -2 27 12 47 32 44 44 45 83 2 78 -21 -2
-26 1 -22 13 3 8 12 15 20 15 7 0 18 9 24 20 11 20 2 25 -27 14z"/>
<path d="M2967 2223 c-4 -3 -7 -32 -7 -63 0 -53 -16 -90 -33 -74 -3 3 -11 -4
-17 -16 -20 -37 31 -21 57 19 33 49 32 167 0 134z"/>
<path d="M2909 2013 c-13 -16 -12 -17 4 -4 9 7 17 15 17 17 0 8 -8 3 -21 -13z"/>
</g>
</svg>
